<?xml version="1.0" encoding="UTF-8"?>
<!DOCTYPE svg PUBLIC "-//W3C//DTD SVG 1.1//EN" "http://www.w3.org/Graphics/SVG/1.1/DTD/svg11.dtd">
<!-- Creator: CorelDRAW 2019 (64-Bit) -->
<svg xmlns="http://www.w3.org/2000/svg" xml:space="preserve" width="300mm" height="400mm" version="1.1" style="shape-rendering:geometricPrecision; text-rendering:geometricPrecision; image-rendering:optimizeQuality; fill-rule:evenodd; clip-rule:evenodd"
viewBox="0 0 30000 40000"
 xmlns:xlink="http://www.w3.org/1999/xlink">
 <defs>
  <style type="text/css">
   <![CDATA[
    .str0 {stroke:#2B2A29;stroke-width:20;stroke-miterlimit:22.9256}
    .fil0 {fill:none}
   ]]>
  </style>
   <clipPath id="id0">
    <path d="M13321.89 6719.97c-990.24,-266.22 -1185.83,8.77 -2043.05,279.07 -430.16,135.63 -976.48,442.98 -1413.45,331.18 -184.63,-47.24 -419.55,-81.35 -580.35,-174.81l-353.07 -205.21 0 2960.3c580.13,351.19 1047.48,400.93 1722.11,230.12 745.42,-188.73 2071.61,-905.98 2804.97,-451.29l350.51 217.31 0 -2941.68c-155.95,-111.34 -316.12,-198.87 -487.67,-244.99z"/>
   </clipPath>
   <clipPath id="id1">
    <path d="M13809.55 9906.63l0 -2941.68c-155.95,-111.33 -316.11,-198.86 -487.66,-244.98 -168.12,-45.2 -313.29,-74.76 -442.73,-91.43l-479.25 0c-342.19,51.34 -617.47,211.7 -1121.07,370.5 -430.16,135.63 -976.48,442.98 -1413.45,331.18 -184.63,-47.24 -419.55,-81.35 -580.35,-174.81l-353.07 -205.21 0 2960.3c580.13,351.19 1047.48,400.93 1722.11,230.12 745.42,-188.73 2071.61,-905.98 2804.97,-451.29l350.5 217.3z"/>
   </clipPath>
   <clipPath id="id2">
    <path d="M13321.89 6719.97c-990.24,-266.22 -1185.83,8.77 -2043.05,279.07 -430.16,135.63 -976.48,442.98 -1413.45,331.18 -184.63,-47.24 -419.55,-81.35 -580.35,-174.81l-353.07 -205.21 0 2960.3c580.13,351.19 1047.48,400.93 1722.11,230.12 745.42,-188.73 2071.61,-905.98 2804.97,-451.29l350.51 217.31 0 -2941.68c-155.95,-111.34 -316.12,-198.87 -487.67,-244.99z"/>
   </clipPath>
 </defs>
 <g id="Layer_x0020_1">
  <metadata id="CorelCorpID_0Corel-Layer"/>
  <g style="clip-path:url(#id0)">
  </g>
  <g style="clip-path:url(#id1)">
   <image id="bg-wave-01.png" x="8931.97" y="6628.54" width="4877.58" height="3609.41" xlink:href="Bulgaria_flg_Images\Bulgaria_flg_ImgID1.png"/>
  </g>
  <g style="clip-path:url(#id2)">
  </g>
  <path class="fil0 str0" d="M13321.89 6719.97c-990.24,-266.22 -1185.83,8.77 -2043.05,279.07 -430.16,135.63 -976.48,442.98 -1413.45,331.18 -184.63,-47.24 -419.55,-81.35 -580.35,-174.81l-353.07 -205.21 0 2960.3c580.13,351.19 1047.48,400.93 1722.11,230.12 745.42,-188.73 2071.61,-905.98 2804.97,-451.29l350.51 217.31 0 -2941.68c-155.95,-111.34 -316.12,-198.87 -487.67,-244.99z"/>
 </g>
</svg>
