<?xml version="1.0" encoding="UTF-8"?>
<!DOCTYPE svg PUBLIC "-//W3C//DTD SVG 1.1//EN" "http://www.w3.org/Graphics/SVG/1.1/DTD/svg11.dtd">
<!-- Creator: CorelDRAW 2019 (64-Bit) -->
<svg xmlns="http://www.w3.org/2000/svg" xml:space="preserve" width="300mm" height="400mm" version="1.1" style="shape-rendering:geometricPrecision; text-rendering:geometricPrecision; image-rendering:optimizeQuality; fill-rule:evenodd; clip-rule:evenodd"
viewBox="0 0 30000 40000"
 xmlns:xlink="http://www.w3.org/1999/xlink">
 <defs>
  <style type="text/css">
   <![CDATA[
    .str0 {stroke:#2B2A29;stroke-width:20;stroke-miterlimit:22.9256}
    .fil0 {fill:none}
   ]]>
  </style>
   <clipPath id="id0">
    <path d="M16048.94 29518.4c283,20.26 567.66,-20.75 849.54,-53.16 329.39,-37.86 655.22,-102.26 982.16,-157.42 281.25,-47.45 537.12,-125.35 822.3,-120.35 316.79,5.56 539.72,68.73 832.35,157.32l0 2797.86c-193.87,-46.24 -383.05,-121.62 -581.62,-138.72 -256.14,-22.05 -515.52,-33.29 -770.96,-4.24 -303.71,34.54 -606.51,124.93 -908.11,174.61 -250.35,41.24 -494.17,108.21 -747.36,124.6 -265.84,17.2 -563.25,6.83 -712.57,-30.82l-457.67 -115.4 0 -2797.83c210.8,107.42 455.55,146.63 691.94,163.55z"/>
   </clipPath>
 </defs>
 <g id="Layer_x0020_1">
  <metadata id="CorelCorpID_0Corel-Layer"/>
  <path class="fil0 str0" d="M16048.94 29518.4c283,20.26 567.66,-20.75 849.54,-53.16 329.39,-37.86 655.22,-102.26 982.16,-157.42 281.25,-47.45 537.12,-125.35 822.3,-120.35 316.79,5.56 539.72,68.73 832.35,157.32l0 2797.86c-193.87,-46.24 -383.05,-121.62 -581.62,-138.72 -256.14,-22.05 -515.52,-33.29 -770.96,-4.24 -303.71,34.54 -606.51,124.93 -908.11,174.61 -250.35,41.24 -494.17,108.21 -747.36,124.6 -265.84,17.2 -563.25,6.83 -712.57,-30.82l-457.67 -115.4 0 -2797.83c210.8,107.42 455.55,146.63 691.94,163.55z"/>
  <g style="clip-path:url(#id0)">
   <image id="flag-waving-2501.png" x="14936.3" y="29072.12" width="5014.01" height="3349.35" xlink:href="Czesh_flag_Images\Czesh_flag_ImgID1.png"/>
  </g>
 </g>
</svg>
