<?xml version="1.0" encoding="UTF-8"?>
<!DOCTYPE svg PUBLIC "-//W3C//DTD SVG 1.1//EN" "http://www.w3.org/Graphics/SVG/1.1/DTD/svg11.dtd">
<!-- Creator: CorelDRAW 2019 (64-Bit) -->
<svg xmlns="http://www.w3.org/2000/svg" xml:space="preserve" width="300mm" height="400mm" version="1.1" style="shape-rendering:geometricPrecision; text-rendering:geometricPrecision; image-rendering:optimizeQuality; fill-rule:evenodd; clip-rule:evenodd"
viewBox="0 0 30000 40000"
 xmlns:xlink="http://www.w3.org/1999/xlink">
 <defs>
  <style type="text/css">
   <![CDATA[
    .fil0 {fill:#5B5B5B}
    .fil1 {fill:#DB1921}
    .fil2 {fill:#5B5B5B;fill-rule:nonzero}
   ]]>
  </style>
 </defs>
 <g id="Layer_x0020_1">
  <metadata id="CorelCorpID_0Corel-Layer"/>
  <g id="_1838728694432">
   <polygon class="fil0" points="11691.61,8928.22 15004.46,6461.58 15976.71,7343.81 16930.96,6587.62 17435.09,7163.76 18245.3,6137.5 18209.29,7145.76 17399.08,8208.03 16948.96,7685.9 16012.72,8406.08 14986.46,7487.85 13456.87,8664.08 13463.17,8422.98 12819.74,8445.7 12809.21,9127.42 12213.74,9612.41 "/>
   <polygon class="fil1" points="13795.76,5048.21 14371.91,5048.21 14328.54,6305.93 15043.48,5761.19 16050.19,6675.97 16801.65,6021.17 16412.92,5523.92 19253.16,4265.3 17401.46,6802.5 17003.93,6299.55 16048.91,7091.36 15003.66,6157.3 11484.16,8932.53 12758.72,10701.67 12347.14,10701.67 11202.54,9132.81 10591.76,9618.87 10573.75,10701.67 10233.32,10701.67 10233.32,7957.76 10573.75,7957.76 10555.74,9180.6 12303.76,7848.71 12303.76,5633.37 12879.92,5633.37 12847.75,7434.21 13037.16,7289.89 13037.16,4832.16 13613.31,4832.16 13613.31,6850.91 13795.76,6711.88 "/>
   <polygon class="fil2" points="24446.57,10701.67 24446.57,8877.48 23552.27,8877.48 23552.27,8582.76 25671.18,8582.76 25671.18,8877.48 24776.86,8877.48 24776.86,10701.67 "/>
   <polygon class="fil2" points="21373.23,10701.67 21373.23,8582.76 21546.85,8582.76 22892.55,10071.59 22892.55,8582.76 23217.76,8582.76 23217.76,10701.67 23044.14,10701.67 21698.44,9217.92 21698.44,10701.67 "/>
   <polygon class="fil2" points="18817.33,10701.67 18817.33,8582.76 20804.12,8582.76 20804.12,8892.73 19147.63,8892.73 19147.63,9421.18 20235.02,9421.18 20235.02,9726.06 19147.63,9726.06 19147.63,10396.79 20895.59,10396.79 20895.59,10701.67 "/>
   <polygon class="fil2" points="15804.96,10701.67 15804.96,8582.76 16080.2,8582.76 16947.4,9822.61 17816.32,8582.76 18091.55,8582.76 18091.55,10701.67 17761.26,10701.67 17761.26,9178.12 16947.4,10356.15 16135.25,9178.12 16135.25,10701.67 "/>
   <path class="fil2" d="M12983.99 8587.85l330.28 0 0 1356.7c0,203.26 48.28,340.45 143.97,411.6 95.7,71.13 286.25,106.69 571.64,106.69 286.26,0 477.65,-35.56 573.35,-106.69 95.7,-71.15 143.97,-208.34 143.97,-411.6l0 -1356.7 330.28 0 0 1443.09c0,260 -82.14,447.16 -246.43,563.18 -165.15,116.03 -432.77,173.6 -805.4,173.6 -370.09,0 -636.86,-56.73 -798.61,-171.06 -161.75,-114.33 -243.05,-302.35 -243.05,-565.72l0 -1443.09z"/>
   <path class="fil2" d="M8343.05 10767.72c-376.85,0 -687.67,-106.69 -930.72,-320.12 -243.06,-212.56 -365.01,-480.19 -365.01,-802.84 0,-323.51 121.11,-591.12 363.31,-802 243.05,-210.87 553.86,-315.88 932.42,-315.88 381.95,0 694.46,105.01 937.51,315.03 242.2,210.03 363.31,477.64 363.31,802.85 0,324.36 -121.95,591.98 -365.01,804.54 -243.04,212.57 -554.7,318.42 -935.81,318.42zm0 -309.95c282.86,0 514.06,-76.23 692.77,-229.51 178.68,-152.44 267.6,-347.21 267.6,-583.5 0,-234.59 -89.77,-428.53 -269.31,-582.66 -179.53,-153.29 -409.89,-230.34 -691.06,-230.34 -281.16,0 -510.67,76.21 -688.51,229.49 -177.85,152.44 -266.77,347.23 -266.77,583.51 0,236.29 88.92,431.06 266.77,583.5 177.84,153.28 407.35,229.51 688.51,229.51z"/>
   <path class="fil2" d="M5555.97 8887.64l-613.16 0 0 1509.15 613.16 0c251.51,0 449.68,-67.75 593.66,-202.4 143.97,-134.66 215.96,-318.43 215.96,-549.63 0,-223.58 -74.52,-405.66 -223.59,-546.24 -149.04,-140.58 -343.83,-210.88 -586.03,-210.88zm-5.09 -304.88c346.37,0 625,99.09 837.57,296.41 211.72,198.17 317.59,454.78 317.59,770.67 0,319.28 -104.18,574.19 -311.66,765.58 -207.49,190.55 -488.65,286.25 -843.5,286.25l-938.35 0 0 -2118.91 938.35 0z"/>
  </g>
 </g>
</svg>
