<?xml version="1.0" encoding="UTF-8"?>
<!DOCTYPE svg PUBLIC "-//W3C//DTD SVG 1.1//EN" "http://www.w3.org/Graphics/SVG/1.1/DTD/svg11.dtd">
<!-- Creator: CorelDRAW 2019 (64-Bit) -->
<svg xmlns="http://www.w3.org/2000/svg" xml:space="preserve" width="300mm" height="400mm" version="1.1" style="shape-rendering:geometricPrecision; text-rendering:geometricPrecision; image-rendering:optimizeQuality; fill-rule:evenodd; clip-rule:evenodd"
viewBox="0 0 30000 40000"
 xmlns:xlink="http://www.w3.org/1999/xlink">
 <defs>
  <style type="text/css">
   <![CDATA[
    .fil0 {fill:#5B5B5B}
    .fil1 {fill:#DB1921}
    .fil2 {fill:#5B5B5B;fill-rule:nonzero}
    .fil3 {fill:#5B5B5B;fill-rule:nonzero}
   ]]>
  </style>
 </defs>
 <g id="Layer_x0020_1">
  <metadata id="CorelCorpID_0Corel-Layer"/>
  <g id="_1838731186064">
   <polygon class="fil0" points="11691.61,8928.22 15004.46,6461.58 15976.71,7343.81 16930.96,6587.62 17435.09,7163.76 18245.3,6137.5 18209.29,7145.76 17399.08,8208.03 16948.96,7685.9 16012.72,8406.08 14986.46,7487.85 13456.87,8664.08 13463.17,8422.98 12819.74,8445.7 12809.21,9127.42 12213.74,9612.41 "/>
   <polygon class="fil1" points="13795.76,5048.21 14371.91,5048.21 14328.54,6305.93 15043.48,5761.19 16050.19,6675.97 16801.65,6021.17 16412.92,5523.92 19253.16,4265.3 17401.46,6802.5 17003.93,6299.55 16048.91,7091.36 15003.66,6157.3 11484.16,8932.53 12758.72,10701.67 12347.14,10701.67 11202.54,9132.81 10591.76,9618.87 10573.75,10701.67 10233.32,10701.67 10233.32,7957.76 10573.75,7957.76 10555.74,9180.6 12303.76,7848.71 12303.76,5633.37 12879.92,5633.37 12847.75,7434.21 13037.16,7289.89 13037.16,4832.16 13613.31,4832.16 13613.31,6850.91 13795.76,6711.88 "/>
   <polygon class="fil2" points="24446.57,10701.67 24446.57,8877.48 23552.27,8877.48 23552.27,8582.76 25671.18,8582.76 25671.18,8877.48 24776.86,8877.48 24776.86,10701.67 "/>
   <polygon class="fil2" points="21373.23,10701.67 21373.23,8582.76 21546.85,8582.76 22892.55,10071.59 22892.55,8582.76 23217.76,8582.76 23217.76,10701.67 23044.14,10701.67 21698.44,9217.92 21698.44,10701.67 "/>
   <polygon class="fil2" points="18817.33,10701.67 18817.33,8582.76 20804.12,8582.76 20804.12,8892.73 19147.63,8892.73 19147.63,9421.18 20235.02,9421.18 20235.02,9726.06 19147.63,9726.06 19147.63,10396.79 20895.59,10396.79 20895.59,10701.67 "/>
   <polygon class="fil2" points="15804.96,10701.67 15804.96,8582.76 16080.2,8582.76 16947.4,9822.61 17816.32,8582.76 18091.55,8582.76 18091.55,10701.67 17761.26,10701.67 17761.26,9178.12 16947.4,10356.15 16135.25,9178.12 16135.25,10701.67 "/>
   <path class="fil2" d="M12983.99 8587.85l330.28 0 0 1356.7c0,203.26 48.28,340.45 143.97,411.6 95.7,71.13 286.25,106.69 571.64,106.69 286.26,0 477.65,-35.56 573.35,-106.69 95.7,-71.15 143.97,-208.34 143.97,-411.6l0 -1356.7 330.28 0 0 1443.09c0,260 -82.14,447.16 -246.43,563.18 -165.15,116.03 -432.77,173.6 -805.4,173.6 -370.09,0 -636.86,-56.73 -798.61,-171.06 -161.75,-114.33 -243.05,-302.35 -243.05,-565.72l0 -1443.09z"/>
   <path class="fil2" d="M8343.05 10767.72c-376.85,0 -687.67,-106.69 -930.72,-320.12 -243.06,-212.56 -365.01,-480.19 -365.01,-802.84 0,-323.51 121.11,-591.12 363.31,-802 243.05,-210.87 553.86,-315.88 932.42,-315.88 381.95,0 694.46,105.01 937.51,315.03 242.2,210.03 363.31,477.64 363.31,802.85 0,324.36 -121.95,591.98 -365.01,804.54 -243.04,212.57 -554.7,318.42 -935.81,318.42zm0 -309.95c282.86,0 514.06,-76.23 692.77,-229.51 178.68,-152.44 267.6,-347.21 267.6,-583.5 0,-234.59 -89.77,-428.53 -269.31,-582.66 -179.53,-153.29 -409.89,-230.34 -691.06,-230.34 -281.16,0 -510.67,76.21 -688.51,229.49 -177.85,152.44 -266.77,347.23 -266.77,583.51 0,236.29 88.92,431.06 266.77,583.5 177.84,153.28 407.35,229.51 688.51,229.51z"/>
   <path class="fil2" d="M5555.97 8887.64l-613.16 0 0 1509.15 613.16 0c251.51,0 449.68,-67.75 593.66,-202.4 143.97,-134.66 215.96,-318.43 215.96,-549.63 0,-223.58 -74.52,-405.66 -223.59,-546.24 -149.04,-140.58 -343.83,-210.88 -586.03,-210.88zm-5.09 -304.88c346.37,0 625,99.09 837.57,296.41 211.72,198.17 317.59,454.78 317.59,770.67 0,319.28 -104.18,574.19 -311.66,765.58 -207.49,190.55 -488.65,286.25 -843.5,286.25l-938.35 0 0 -2118.91 938.35 0z"/>
  </g>
  <path class="fil3" d="M5312.15 12100.77c0,-92.88 -25.44,-167.67 -76.02,-224.07 -50.58,-56.71 -116.48,-84.91 -198.02,-84.91 -84.29,0 -150.2,26.06 -197.4,78.16 -47.51,52.11 -71.12,124.76 -71.12,218.25 0,99.32 23.91,175.95 71.42,229.59 47.52,53.95 115.26,80.93 202.62,80.93 83.68,0 149.58,-26.06 197.1,-78.48 47.5,-52.41 71.42,-125.67 71.42,-219.47zm136.1 -419.33l0 822.11 -136.1 0 0 -148.97c-32.8,59.77 -75.1,105.44 -126.29,136.71 -51.19,31.57 -108.51,47.2 -171.97,47.2 -117.7,0 -213.03,-40.46 -285.07,-121.69 -72.03,-81.23 -108.2,-188.51 -108.2,-322.16 0,-135.18 34.95,-242.77 105.14,-322.78 69.88,-80 163.69,-119.85 281.08,-119.85 68.67,0 128.44,15.33 179.02,46.29 50.57,30.96 91.65,77.24 122.61,138.25l0 -155.11 139.78 0zm1255.31 627.16l0 163.68c-37.09,22.07 -78.78,38.62 -125.37,49.66 -46.29,11.04 -96.56,16.55 -150.51,16.55 -126.9,0 -228.98,-40.16 -306.52,-120.77 -77.55,-80.62 -116.48,-186.37 -116.48,-317.56 0,-131.81 40.15,-239.4 120.46,-322.78 80.31,-83.68 182.99,-125.37 308.06,-125.37 45.37,0 89.81,4.91 133.34,14.41 43.52,9.5 84.29,23.6 122.61,42.3l0 151.12c-35.86,-23.29 -72.95,-41.07 -111.27,-53.33 -38.31,-12.27 -77.25,-18.4 -116.79,-18.4 -92.26,0 -166.44,28.82 -221.92,86.75 -55.79,57.63 -83.68,134.57 -83.68,230.2 0,84.6 27.89,155.11 83.98,212.12 56.1,56.7 126.29,85.21 210.59,85.21 42.61,0 84.3,-7.66 125.06,-22.68 40.77,-15.02 83.38,-38.62 128.44,-71.11zm1169.49 0l0 163.68c-37.1,22.07 -78.79,38.62 -125.37,49.66 -46.29,11.04 -96.56,16.55 -150.51,16.55 -126.9,0 -228.98,-40.16 -306.53,-120.77 -77.55,-80.62 -116.48,-186.37 -116.48,-317.56 0,-131.81 40.16,-239.4 120.47,-322.78 80.31,-83.68 182.99,-125.37 308.05,-125.37 45.37,0 89.82,4.91 133.35,14.41 43.52,9.5 84.29,23.6 122.61,42.3l0 151.12c-35.87,-23.29 -72.96,-41.07 -111.27,-53.33 -38.32,-12.27 -77.25,-18.4 -116.79,-18.4 -92.26,0 -166.45,28.82 -221.93,86.75 -55.79,57.63 -83.68,134.57 -83.68,230.2 0,84.6 27.89,155.11 83.99,212.12 56.09,56.7 126.29,85.21 210.59,85.21 42.6,0 84.29,-7.66 125.06,-22.68 40.77,-15.02 83.38,-38.62 128.44,-71.11zm621.41 -213.35c0,86.75 29.12,160.32 87.05,220.4 58.24,60.38 128.74,90.42 211.2,90.42 82.15,0 152.04,-30.04 209.67,-90.42 57.31,-60.08 86.13,-133.65 86.13,-220.4 0,-86.74 -28.82,-160.31 -86.13,-220.39 -57.63,-60.39 -127.52,-90.43 -209.67,-90.43 -83.07,0 -153.57,30.04 -211.51,90.43 -57.93,60.08 -86.74,133.65 -86.74,220.39zm-148.98 -0.61c0,-60.39 11.04,-117.4 33.11,-171.04 22.37,-53.34 54.56,-101.15 97.17,-143.15 42.61,-41.99 90.73,-73.87 144.68,-95.64 53.95,-21.76 111.27,-32.8 172.58,-32.8 59.77,0 116.47,11.04 170.12,33.11 53.64,22.38 102.07,54.56 145.91,97.17 42.61,41.38 74.79,88.58 97.17,142.23 22.07,53.64 33.1,110.35 33.1,170.12 0,60.08 -11.03,116.48 -33.1,169.51 -22.38,53.03 -54.56,100.23 -97.17,141.31 -43.84,43.22 -92.58,76.02 -146.83,99.01 -54.26,22.68 -110.65,34.02 -169.2,34.02 -60.7,0 -118.02,-11.34 -172.27,-33.72 -54.26,-22.37 -102.38,-54.56 -144.99,-96.55 -42.61,-43.22 -74.8,-91.04 -97.17,-143.77 -22.07,-52.72 -33.11,-109.12 -33.11,-169.81zm1588.21 -413.2l0 404.61c0,118.02 17.47,200.48 52.41,247.68 35.26,46.9 94.11,70.5 177.48,70.5 83.07,0 141.93,-23.29 176.56,-69.58 34.34,-46.59 51.5,-129.35 51.5,-248.6l0 -404.61 143.46 0 0 480.02c0,123.84 -31.58,217.64 -95.03,281.39 -63.45,63.76 -156.94,95.64 -280.17,95.64 -121.99,0 -214.87,-31.88 -278.32,-95.94 -63.45,-64.07 -95.02,-157.86 -95.02,-281.09l0 -480.02 147.13 0zm1216.69 822.11l0 -822.11 137.93 0 0 126.91c35.26,-52.73 77.87,-91.97 127.52,-117.71 49.66,-25.75 107.29,-38.63 172.27,-38.63 97.17,0 172.88,25.75 227.14,77.25 54.56,51.5 81.84,123.22 81.84,214.88l0 559.41 -143.45 0 0 -484.01c0,-83.38 -17.47,-144.99 -52.42,-185.45 -35.25,-40.46 -89.2,-60.69 -162.15,-60.69 -42,0 -80.31,7.66 -114.64,22.99 -34.34,15.32 -62.84,36.78 -85.83,64.98 -17.17,21.46 -29.74,46.29 -37.09,73.57 -7.67,27.58 -11.35,75.41 -11.35,143.76l0 424.85 -139.77 0zm1390.18 -706.24l-150.81 0 0 -115.87 150.81 0 0 -331.05 143.45 0 0 331.05 150.82 0 0 115.87 -150.82 0 0 706.24 -143.45 0 0 -706.24zm771.61 -511.9c0,-27.9 10.12,-52.11 30.04,-72.34 20.23,-19.93 44.76,-30.04 73.57,-30.04 27.89,0 52.11,10.11 72.34,30.65 19.92,20.23 30.04,44.75 30.04,73.57 0,28.2 -9.81,52.41 -29.73,72.03 -19.62,19.92 -44.14,29.73 -72.65,29.73 -28.81,0 -53.34,-9.81 -73.57,-29.73 -19.92,-19.62 -30.04,-44.44 -30.04,-73.87zm33.11 1218.14l0 -822.11 141.61 0 0 822.11 -141.61 0zm781.42 0l0 -822.11 137.93 0 0 126.91c35.26,-52.73 77.87,-91.97 127.52,-117.71 49.66,-25.75 107.29,-38.63 172.27,-38.63 97.17,0 172.88,25.75 227.14,77.25 54.56,51.5 81.84,123.22 81.84,214.88l0 559.41 -143.45 0 0 -484.01c0,-83.38 -17.47,-144.99 -52.42,-185.45 -35.25,-40.46 -89.2,-60.69 -162.15,-60.69 -42,0 -80.31,7.66 -114.64,22.99 -34.34,15.32 -62.84,36.78 -85.83,64.98 -17.17,21.46 -29.73,46.29 -37.09,73.57 -7.67,27.58 -11.35,75.41 -11.35,143.76l0 424.85 -139.77 0zm1997.11 -408.3c0,-92.26 -25.13,-166.44 -75.41,-222.84 -50.57,-56.1 -116.48,-84.3 -198.63,-84.3 -84.29,0 -150.19,26.06 -197.71,78.16 -47.2,52.12 -70.81,124.76 -70.81,218.26 0,99.31 23.92,175.94 71.42,229.59 47.52,53.94 114.95,80.92 202.62,80.92 83.68,0 149.58,-26.36 197.1,-79.39 47.51,-53.03 71.42,-126.6 71.42,-220.4zm136.1 -413.81l0 807.7c0,89.2 -6.14,152.65 -18.09,190.66 -11.95,37.7 -31.57,71.42 -59.16,101.46 -38.32,41.39 -85.21,72.34 -140.69,92.57 -55.18,20.54 -118.94,30.66 -190.66,30.66 -124.76,0 -221.62,-28.51 -291.51,-85.52 -69.89,-57.02 -106.06,-137.64 -109.13,-241.85l158.17 0 0 10.72c0,61.92 21.15,109.43 63.76,143.15 42.6,33.41 102.69,50.27 180.54,50.27 56.4,0 104.53,-9.2 144.38,-27.28 39.85,-18.39 70.19,-45.67 91.04,-81.53 12.56,-20.24 21.76,-44.14 26.97,-71.12 5.52,-26.97 8.28,-65.59 8.28,-115.87l0 -64.67 0 -73.27c-31.88,58.55 -73.57,103.31 -124.76,134.88 -51.49,31.26 -109.43,46.9 -173.5,46.9 -118.01,0 -213.03,-40.16 -285.07,-120.47 -72.03,-80 -108.2,-186.67 -108.2,-319.4 0,-134.26 34.95,-240.62 105.14,-319.41 69.89,-78.77 163.69,-118.01 281.09,-118.01 68.05,0 128.13,15.33 179.62,46.29 51.5,30.96 91.96,76.63 122,136.41l0 -153.27 139.78 0zm1083.96 683.86l120.46 -80.61c22.69,43.53 51.19,76.01 86.14,97.78 34.64,21.76 75.71,32.8 122.92,32.8 45.98,0 83.37,-11.34 111.88,-34.03 28.51,-22.68 42.61,-52.72 42.61,-89.81 0,-28.5 -9.81,-52.42 -29.12,-71.72 -19.62,-19.01 -53.03,-36.79 -100.24,-52.73l-23.29 -8.28c-199.86,-68.66 -299.79,-155.1 -299.79,-258.7 0,-72.96 26.98,-132.73 80.62,-178.71 53.95,-46.29 123.84,-69.28 209.97,-69.28 71.42,0 132.42,14.1 183.3,42.61 50.89,28.51 87.37,68.66 109.43,120.77l-113.72 70.2c-16.85,-37.7 -41.69,-66.82 -74.18,-87.06 -32.8,-20.53 -70.5,-30.65 -113.72,-30.65 -41.38,0 -75.1,11.65 -101.16,34.64 -26.05,22.99 -38.92,52.41 -38.92,88.59 0,50.27 54.56,92.57 163.38,126.59 20.54,6.75 36.78,11.65 48.74,15.33 88.89,28.81 151.11,61.61 186.06,98.39 34.94,36.78 52.41,85.22 52.41,145.91 0,77.55 -27.59,140.7 -83.07,188.82 -55.17,48.13 -127.51,72.34 -216.71,72.34 -76.63,0 -141.61,-14.4 -195.26,-43.22 -53.34,-28.5 -96.55,-72.03 -128.74,-129.97zm1762 -365.68c-4.91,-72.34 -28.81,-128.13 -72.34,-167.37 -43.22,-39.23 -102.69,-58.85 -178.1,-58.85 -68.35,0 -125.37,20.54 -170.73,61.61 -45.67,40.77 -72.03,95.64 -79.08,164.61l500.25 0zm150.81 114.02l-651.06 0 0 12.57c0,87.98 25.13,159.09 75.4,213.35 50.27,54.25 115.87,81.23 196.8,81.23 54.86,0 104.83,-14.72 148.97,-44.45 44.44,-29.43 83.68,-74.18 117.7,-133.95l106.67 71.73c-41.07,74.17 -93.8,130.27 -157.86,167.97 -64.06,37.71 -138.24,56.4 -222.84,56.4 -125.07,0 -226.22,-41.38 -303.47,-123.84 -77.24,-82.75 -115.86,-191.27 -115.86,-325.22 0,-128.74 38.31,-234.19 114.94,-316.34 76.64,-81.84 175.03,-122.92 295.5,-122.92 121.38,0 217.63,38.93 288.75,116.79 70.81,77.86 106.36,184.22 106.36,318.79l0 27.89zm557.04 389.91l0 -822.11 125.37 0 0 171.35c37.71,-71.42 77.86,-122.31 120.47,-152.96 42.6,-30.65 94.41,-45.98 155.41,-45.98 16.86,0 33.1,1.23 48.74,3.99 15.33,2.75 30.95,6.74 46.59,11.95l-46.59 127.52c-16.25,-5.52 -31.58,-9.51 -45.98,-12.27 -14.41,-2.75 -28.2,-3.98 -41.38,-3.98 -74.19,0 -129.97,26.67 -167.06,80.31 -37.09,53.65 -55.79,134.26 -55.79,241.85l0 400.33 -139.78 0zm1257.77 51.49l-406.77 -873.6 158.17 0 247.07 574.13 247.67 -574.13 158.17 0 -404.31 873.6zm873.07 -1269.63c0,-27.9 10.12,-52.11 30.04,-72.34 20.23,-19.93 44.75,-30.04 73.57,-30.04 27.89,0 52.11,10.11 72.34,30.65 19.92,20.23 30.04,44.75 30.04,73.57 0,28.2 -9.81,52.41 -29.73,72.03 -19.62,19.92 -44.14,29.73 -72.65,29.73 -28.82,0 -53.34,-9.81 -73.57,-29.73 -19.92,-19.62 -30.04,-44.44 -30.04,-73.87zm33.11 1218.14l0 -822.11 141.61 0 0 822.11 -141.61 0zm1412.26 -194.95l0 163.68c-37.1,22.07 -78.79,38.62 -125.37,49.66 -46.29,11.04 -96.56,16.55 -150.51,16.55 -126.9,0 -228.98,-40.16 -306.53,-120.77 -77.55,-80.62 -116.48,-186.37 -116.48,-317.56 0,-131.81 40.16,-239.4 120.47,-322.78 80.31,-83.68 182.99,-125.37 308.05,-125.37 45.37,0 89.82,4.91 133.35,14.41 43.52,9.5 84.29,23.6 122.61,42.3l0 151.12c-35.87,-23.29 -72.96,-41.07 -111.27,-53.33 -38.32,-12.27 -77.25,-18.4 -116.79,-18.4 -92.26,0 -166.45,28.82 -221.93,86.75 -55.79,57.63 -83.68,134.57 -83.68,230.2 0,84.6 27.89,155.11 83.99,212.12 56.09,56.7 126.29,85.21 210.58,85.21 42.61,0 84.3,-7.66 125.07,-22.68 40.77,-15.02 83.37,-38.62 128.44,-71.11zm1121.66 -308.98c-4.91,-72.34 -28.81,-128.13 -72.34,-167.37 -43.22,-39.23 -102.69,-58.85 -178.09,-58.85 -68.36,0 -125.37,20.54 -170.74,61.61 -45.67,40.77 -72.03,95.64 -79.08,164.61l500.25 0zm150.81 114.02l-651.06 0 0 12.57c0,87.98 25.13,159.09 75.4,213.35 50.27,54.25 115.87,81.23 196.8,81.23 54.86,0 104.83,-14.72 148.97,-44.45 44.45,-29.43 83.68,-74.18 117.7,-133.95l106.67 71.73c-41.07,74.17 -93.79,130.27 -157.86,167.97 -64.06,37.71 -138.24,56.4 -222.84,56.4 -125.07,0 -226.22,-41.38 -303.47,-123.84 -77.24,-82.75 -115.86,-191.27 -115.86,-325.22 0,-128.74 38.31,-234.19 114.94,-316.34 76.64,-81.84 175.03,-122.92 295.5,-122.92 121.38,0 217.63,38.93 288.75,116.79 70.81,77.86 106.36,184.22 106.36,318.79l0 27.89zm468.46 251.66l120.46 -80.61c22.68,43.53 51.19,76.01 86.14,97.78 34.63,21.76 75.71,32.8 122.92,32.8 45.98,0 83.37,-11.34 111.88,-34.03 28.51,-22.68 42.61,-52.72 42.61,-89.81 0,-28.5 -9.82,-52.42 -29.12,-71.72 -19.62,-19.01 -53.03,-36.79 -100.24,-52.73l-23.29 -8.28c-199.86,-68.66 -299.79,-155.1 -299.79,-258.7 0,-72.96 26.98,-132.73 80.62,-178.71 53.95,-46.29 123.84,-69.28 209.97,-69.28 71.42,0 132.42,14.1 183.3,42.61 50.88,28.51 87.36,68.66 109.43,120.77l-113.72 70.2c-16.86,-37.7 -41.69,-66.82 -74.18,-87.06 -32.8,-20.53 -70.5,-30.65 -113.72,-30.65 -41.38,0 -75.1,11.65 -101.16,34.64 -26.05,22.99 -38.93,52.41 -38.93,88.59 0,50.27 54.57,92.57 163.38,126.59 20.54,6.75 36.79,11.65 48.74,15.33 88.89,28.81 151.12,61.61 186.06,98.39 34.95,36.78 52.42,85.22 52.42,145.91 0,77.55 -27.59,140.7 -83.07,188.82 -55.18,48.13 -127.51,72.34 -216.71,72.34 -76.63,0 -141.62,-14.4 -195.26,-43.22 -53.34,-28.5 -96.55,-72.03 -128.74,-129.97z"/>
 </g>
</svg>
