<?xml version="1.0" encoding="UTF-8"?>
<!DOCTYPE svg PUBLIC "-//W3C//DTD SVG 1.1//EN" "http://www.w3.org/Graphics/SVG/1.1/DTD/svg11.dtd">
<!-- Creator: CorelDRAW 2019 (64-Bit) -->
<svg xmlns="http://www.w3.org/2000/svg" xml:space="preserve" width="300mm" height="400mm" version="1.1" style="shape-rendering:geometricPrecision; text-rendering:geometricPrecision; image-rendering:optimizeQuality; fill-rule:evenodd; clip-rule:evenodd"
viewBox="0 0 30000 40000"
 xmlns:xlink="http://www.w3.org/1999/xlink">
 <defs>
  <style type="text/css">
   <![CDATA[
    .str0 {stroke:#434242;stroke-width:20;stroke-miterlimit:22.9256}
    .fil0 {fill:none}
   ]]>
  </style>
   <clipPath id="id0">
    <path d="M9161.67 5926.64c82.18,28.31 165.1,54.61 246.55,84.92 196.83,73.22 422.26,93.63 636.09,97.01 289.52,4.6 579.42,-36.3 866.62,-73.14 202.05,-25.93 398.43,-66.85 597.61,-109.58 454.58,-97.55 813.43,-222.2 1280.26,-143.89l836.22 140.29 0 2904.32c-135.52,-34.31 -268.59,-80.51 -406.57,-102.94 -419.14,-68.12 -781.26,-78.56 -1202.8,-17.43 -208.69,30.27 -412.05,90.03 -617.5,137.56 -488.89,113.11 -685.58,183.22 -1206.65,164.18 -544.24,-19.89 -536.21,7.17 -1029.83,-202.87l0 -2878.43z"/>
   </clipPath>
 </defs>
 <g id="Layer_x0020_1">
  <metadata id="CorelCorpID_0Corel-Layer"/>
  <g style="clip-path:url(#id0)">
   <image id="f40fe3dbda34467dac6c17e2f0e387d3.jpg" x="8367.99" y="5315.72" width="6327.45" height="4393.3" xlink:href="Union_jack_flag_Images\Union_jack_flag_ImgID1.png"/>
  </g>
  <path class="fil0 str0" d="M9161.67 5926.64c82.18,28.31 165.1,54.61 246.55,84.92 196.83,73.22 422.26,93.63 636.09,97.01 289.52,4.6 579.42,-36.3 866.62,-73.14 202.05,-25.93 398.43,-66.85 597.61,-109.58 454.58,-97.55 813.43,-222.2 1280.26,-143.89l836.22 140.29 0 2904.32c-135.52,-34.31 -268.59,-80.51 -406.57,-102.94 -419.14,-68.12 -781.26,-78.56 -1202.8,-17.43 -208.69,30.27 -412.05,90.03 -617.5,137.56 -488.89,113.11 -685.58,183.22 -1206.65,164.18 -544.24,-19.89 -536.21,7.17 -1029.83,-202.87l0 -2878.43z"/>
 </g>
</svg>
