<?xml version="1.0" encoding="UTF-8"?>
<!DOCTYPE svg PUBLIC "-//W3C//DTD SVG 1.1//EN" "http://www.w3.org/Graphics/SVG/1.1/DTD/svg11.dtd">
<!-- Creator: CorelDRAW 2019 (64-Bit) -->
<svg xmlns="http://www.w3.org/2000/svg" xml:space="preserve" width="300mm" height="400mm" version="1.1" style="shape-rendering:geometricPrecision; text-rendering:geometricPrecision; image-rendering:optimizeQuality; fill-rule:evenodd; clip-rule:evenodd"
viewBox="0 0 30000 40000"
 xmlns:xlink="http://www.w3.org/1999/xlink">
 <defs>
  <style type="text/css">
   <![CDATA[
    .str0 {stroke:#2B2A29;stroke-width:20;stroke-miterlimit:22.9256}
    .fil0 {fill:none}
   ]]>
  </style>
   <clipPath id="id0">
    <path d="M9151.16 29440.27c-283.09,43.6 -554.63,182.32 -840.55,237.1 -288.24,55.21 -582.22,89.49 -875.69,91.68 -238.63,1.78 -498.01,26.94 -711.52,-79.71l-440.44 -219.99 0 2520.58c162.36,96.37 304.65,203.99 487.08,252.58 519.5,138.39 726.37,72.29 1236.49,-24.36 487.76,-92.42 967.52,-237.12 1461.48,-286.64 327.33,-32.82 690.62,-103.42 986.07,41.24l496.08 242.91 -25.48 -2441.94c-685.71,-450.83 -882.27,-470.71 -1773.52,-333.45z"/>
   </clipPath>
 </defs>
 <g id="Layer_x0020_1">
  <metadata id="CorelCorpID_0Corel-Layer"/>
  <g style="clip-path:url(#id0)">
   <image id="_47-476486_poland-clipart-polish-flag-polish-flag-clipart-transparent.png.jpg" transform="matrix(-0.690346 -0 -0 0.690346 11178 29132.5)" x="0" y="0" width="7450.66" height="5046.12" xlink:href="Poland_flag_Images\Poland_flag_ImgID1.png"/>
  </g>
  <path class="fil0 str0" d="M9151.16 29440.27c-283.09,43.6 -554.63,182.32 -840.55,237.1 -288.24,55.21 -582.22,89.49 -875.69,91.68 -238.63,1.78 -498.01,26.94 -711.52,-79.71l-440.44 -219.99 0 2520.58c162.36,96.37 304.65,203.99 487.08,252.58 519.5,138.39 726.37,72.29 1236.49,-24.36 487.76,-92.42 967.52,-237.12 1461.48,-286.64 327.33,-32.82 690.62,-103.42 986.07,41.24l496.08 242.91 -25.48 -2441.94c-685.71,-450.83 -882.27,-470.71 -1773.52,-333.45z"/>
 </g>
</svg>
