<?xml version="1.0" encoding="UTF-8"?>
<!DOCTYPE svg PUBLIC "-//W3C//DTD SVG 1.1//EN" "http://www.w3.org/Graphics/SVG/1.1/DTD/svg11.dtd">
<!-- Creator: CorelDRAW 2019 (64-Bit) -->
<svg xmlns="http://www.w3.org/2000/svg" xml:space="preserve" width="300mm" height="400mm" version="1.1" style="shape-rendering:geometricPrecision; text-rendering:geometricPrecision; image-rendering:optimizeQuality; fill-rule:evenodd; clip-rule:evenodd"
viewBox="0 0 30000 40000"
 xmlns:xlink="http://www.w3.org/1999/xlink">
 <defs>
  <style type="text/css">
   <![CDATA[
    .str0 {stroke:#2B2A29;stroke-width:20;stroke-miterlimit:22.9256}
    .fil0 {fill:none}
   ]]>
  </style>
   <clipPath id="id0">
    <path d="M23504.82 28716.57c261.67,14.14 524.6,-20.13 784.17,-56.09 363.38,-50.35 719.08,-147.46 1081.78,-202.45 209.14,-31.72 413.85,-44.23 625.39,-44.23 146.49,0 374.87,18.83 518.93,82.53l248.97 110.09 -9 2623.76c-220.43,-55.77 -434.33,-153.6 -661.3,-167.31 -280.2,-16.93 -560.45,39.15 -838.64,76.68 -266.56,35.95 -528.65,99.87 -794.05,143.57 -257.9,42.46 -514.3,117.85 -775.65,114.9 -435.15,-4.9 -548.51,-33.12 -937.09,-158.68l9.58 -2661.65c235.74,92.6 494.06,125.21 746.91,138.88z"/>
   </clipPath>
 </defs>
 <g id="Layer_x0020_1">
  <metadata id="CorelCorpID_0Corel-Layer"/>
  <path class="fil0 str0" d="M23504.82 28716.57c261.67,14.14 524.6,-20.13 784.17,-56.09 363.38,-50.35 719.08,-147.46 1081.78,-202.45 209.14,-31.72 413.85,-44.23 625.39,-44.23 146.49,0 374.87,18.83 518.93,82.53l248.97 110.09 -9 2623.76c-220.43,-55.77 -434.33,-153.6 -661.3,-167.31 -280.2,-16.93 -560.45,39.15 -838.64,76.68 -266.56,35.95 -528.65,99.87 -794.05,143.57 -257.9,42.46 -514.3,117.85 -775.65,114.9 -435.15,-4.9 -548.51,-33.12 -937.09,-158.68l9.58 -2661.65c235.74,92.6 494.06,125.21 746.91,138.88z"/>
  <g style="clip-path:url(#id0)">
   <image id="flag-waving-2504.png" x="22367.03" y="28302.86" width="4787.9" height="3198.31" xlink:href="Portugal_flag_Images\Portugal_flag_ImgID1.png"/>
  </g>
 </g>
</svg>
