<?xml version="1.0" encoding="UTF-8"?>
<!DOCTYPE svg PUBLIC "-//W3C//DTD SVG 1.1//EN" "http://www.w3.org/Graphics/SVG/1.1/DTD/svg11.dtd">
<!-- Creator: CorelDRAW 2019 (64-Bit) -->
<svg xmlns="http://www.w3.org/2000/svg" xml:space="preserve" width="300mm" height="400mm" version="1.1" style="shape-rendering:geometricPrecision; text-rendering:geometricPrecision; image-rendering:optimizeQuality; fill-rule:evenodd; clip-rule:evenodd"
viewBox="0 0 30000 40000"
 xmlns:xlink="http://www.w3.org/1999/xlink">
 <defs>
  <style type="text/css">
   <![CDATA[
    .str0 {stroke:#2B2A29;stroke-width:20;stroke-miterlimit:22.9256}
    .fil0 {fill:none}
   ]]>
  </style>
   <clipPath id="id0">
    <path d="M24727.65 29488.1c311.77,37.82 629.35,36.24 942.16,8.23 278.33,-24.91 546.97,-115.17 821.74,-166.16 253.02,-46.94 505.82,-97.69 761.42,-127.59 160.96,-18.83 323.84,-8.7 485.86,-5.1 304.45,6.77 426.06,52.18 707.85,145.5l-6.69 2763.56c-223.9,-97.07 -433.09,-152.2 -678.33,-165.51 -319.09,-17.32 -656.8,36.62 -973.16,81.71 -318.5,45.41 -585.82,121.08 -903.82,169.83 -226.48,34.72 -507.52,95.75 -735.61,73.92 -419.52,-40.15 -441.35,-34.37 -807.27,-173.11l-18.09 -2750.41c134.65,51.71 260.77,127.76 403.94,145.13z"/>
   </clipPath>
 </defs>
 <g id="Layer_x0020_1">
  <metadata id="CorelCorpID_0Corel-Layer"/>
  <path class="fil0 str0" d="M24727.65 29488.1c311.77,37.82 629.35,36.24 942.16,8.23 278.33,-24.91 546.97,-115.17 821.74,-166.16 253.02,-46.94 505.82,-97.69 761.42,-127.59 160.96,-18.83 323.84,-8.7 485.86,-5.1 304.45,6.77 426.06,52.18 707.85,145.5l-6.69 2763.56c-223.9,-97.07 -433.09,-152.2 -678.33,-165.51 -319.09,-17.32 -656.8,36.62 -973.16,81.71 -318.5,45.41 -585.82,121.08 -903.82,169.83 -226.48,34.72 -507.52,95.75 -735.61,73.92 -419.52,-40.15 -441.35,-34.37 -807.27,-173.11l-18.09 -2750.41c134.65,51.71 260.77,127.76 403.94,145.13z"/>
  <g style="clip-path:url(#id0)">
   <image id="flag-waving-2503.png" x="23912.55" y="29072.57" width="4946.84" height="3304.49" xlink:href="Romania_flag_Images\Romania_flag_ImgID1.png"/>
  </g>
 </g>
</svg>
