<?xml version="1.0" encoding="UTF-8"?>
<!DOCTYPE svg PUBLIC "-//W3C//DTD SVG 1.1//EN" "http://www.w3.org/Graphics/SVG/1.1/DTD/svg11.dtd">
<!-- Creator: CorelDRAW 2019 (64-Bit) -->
<svg xmlns="http://www.w3.org/2000/svg" xml:space="preserve" width="300mm" height="400mm" version="1.1" style="shape-rendering:geometricPrecision; text-rendering:geometricPrecision; image-rendering:optimizeQuality; fill-rule:evenodd; clip-rule:evenodd"
viewBox="0 0 30000 40000"
 xmlns:xlink="http://www.w3.org/1999/xlink">
 <defs>
  <style type="text/css">
   <![CDATA[
    .str0 {stroke:#2B2A29;stroke-width:20;stroke-miterlimit:22.9256}
    .fil0 {fill:none}
   ]]>
  </style>
   <clipPath id="id0">
    <path d="M20368.2 29480.4c253.63,29.31 511.53,26.32 765.98,5.2 242.4,-20.11 479.26,-83.59 718.32,-128.39 242.61,-45.48 483.32,-101.3 726.68,-142.47 320.4,-54.2 925.66,-35.13 1087.67,16.44l343.19 109.28 0 2806.31c-194.22,-54.8 -382.28,-140.37 -582.65,-164.42 -201.49,-24.18 -406.48,1.52 -608.44,21.44 -232.98,22.98 -463.97,64.25 -694.13,107.07 -240.28,44.69 -474.94,98.88 -716.57,135.53 -233.7,35.46 -477.54,85.61 -713.19,67.18 -446.19,-34.9 -491.28,-18.11 -902.22,-166.8l0 -2796.22c191.79,49.95 378.5,107.1 575.36,129.85z"/>
   </clipPath>
 </defs>
 <g id="Layer_x0020_1">
  <metadata id="CorelCorpID_0Corel-Layer"/>
  <path class="fil0 str0" d="M20368.2 29480.4c253.63,29.31 511.53,26.32 765.98,5.2 242.4,-20.11 479.26,-83.59 718.32,-128.39 242.61,-45.48 483.32,-101.3 726.68,-142.47 320.4,-54.2 925.66,-35.13 1087.67,16.44l343.19 109.28 0 2806.31c-194.22,-54.8 -382.28,-140.37 -582.65,-164.42 -201.49,-24.18 -406.48,1.52 -608.44,21.44 -232.98,22.98 -463.97,64.25 -694.13,107.07 -240.28,44.69 -474.94,98.88 -716.57,135.53 -233.7,35.46 -477.54,85.61 -713.19,67.18 -446.19,-34.9 -491.28,-18.11 -902.22,-166.8l0 -2796.22c191.79,49.95 378.5,107.1 575.36,129.85z"/>
  <g style="clip-path:url(#id0)">
   <image id="flag-waving-2502.png" x="19380.82" y="29057.09" width="5046.96" height="3371.37" xlink:href="Russia_flag_Images\Russia_flag_ImgID1.png"/>
  </g>
 </g>
</svg>
