<?xml version="1.0" encoding="UTF-8"?>
<!DOCTYPE svg PUBLIC "-//W3C//DTD SVG 1.1//EN" "http://www.w3.org/Graphics/SVG/1.1/DTD/svg11.dtd">
<!-- Creator: CorelDRAW 2019 (64-Bit) -->
<svg xmlns="http://www.w3.org/2000/svg" xml:space="preserve" width="300mm" height="400mm" version="1.1" style="shape-rendering:geometricPrecision; text-rendering:geometricPrecision; image-rendering:optimizeQuality; fill-rule:evenodd; clip-rule:evenodd"
viewBox="0 0 30000 40000"
 xmlns:xlink="http://www.w3.org/1999/xlink">
 <defs>
  <style type="text/css">
   <![CDATA[
    .str0 {stroke:#2B2A29;stroke-width:20;stroke-miterlimit:22.9256}
    .fil0 {fill:none}
   ]]>
  </style>
   <clipPath id="id0">
    <path d="M6307.06 29180.75c285.48,36.26 574.21,74.01 861.47,56.75 388.69,-23.36 770.24,-115.18 1154.54,-177.91 183.49,-29.95 364.23,-76.96 548.7,-100.14 194.14,-24.39 538.72,-63.46 728,-13.88l541.61 141.9 0 2736.59c-302.53,-97.17 -560.85,-149.69 -848.05,-152.57 -364.15,-3.65 -724.49,77.41 -1084.36,133.17 -253.8,39.32 -501.33,114.18 -755.37,151.89 -303.61,45.07 -915.87,38.58 -1082.41,-14.25l-327.81 -103.99 0 -2743.71c87.89,28.72 171.95,74.51 263.68,86.15z"/>
   </clipPath>
 </defs>
 <g id="Layer_x0020_1">
  <metadata id="CorelCorpID_0Corel-Layer"/>
  <path class="fil0 str0" d="M6307.06 29180.75c285.48,36.26 574.21,74.01 861.47,56.75 388.69,-23.36 770.24,-115.18 1154.54,-177.91 183.49,-29.95 364.23,-76.96 548.7,-100.14 194.14,-24.39 538.72,-63.46 728,-13.88l541.61 141.9 0 2736.59c-302.53,-97.17 -560.85,-149.69 -848.05,-152.57 -364.15,-3.65 -724.49,77.41 -1084.36,133.17 -253.8,39.32 -501.33,114.18 -755.37,151.89 -303.61,45.07 -915.87,38.58 -1082.41,-14.25l-327.81 -103.99 0 -2743.71c87.89,28.72 171.95,74.51 263.68,86.15z"/>
  <g style="clip-path:url(#id0)">
   <image id="_47-471355_waterfalls-in-the-czech-republic-slovakia-flag-hd.png" x="5881.77" y="28715.07" width="4429.29" height="3615.54" xlink:href="Slovakia_flag_Images\Slovakia_flag_ImgID1.png"/>
  </g>
 </g>
</svg>
